<svg width="49" height="48" viewBox="0 0 49 48" fill="none" xmlns="http://www.w3.org/2000/svg">
<path d="M12.433 43.5H14.967C19.18 43.5 23.2204 41.8264 26.1994 38.8474C29.1784 35.8684 30.852 31.828 30.852 27.615V21.794C30.8519 21.198 30.9692 20.6078 31.1971 20.0571C31.4251 19.5064 31.7594 19.006 32.1808 18.5845C32.6022 18.163 33.1025 17.8286 33.6532 17.6005C34.2038 17.3724 34.794 17.255 35.39 17.255H36.196V10.288H34.782C32.0736 10.288 29.4761 11.3639 27.561 13.279C25.6459 15.1941 24.57 17.7916 24.57 20.5V27.5C24.57 30.2084 23.4941 32.8059 21.579 34.721C19.6639 36.6361 17.0664 37.712 14.358 37.712H12.944V30.745H13.75C14.346 30.745 14.9362 30.6276 15.4868 30.3995C16.0375 30.1714 16.5378 29.837 16.9592 29.4155C17.3806 28.994 17.7149 28.4936 17.9429 27.9429C18.1708 27.3922 18.2881 26.802 18.288 26.206V20.385C18.288 18.299 18.6989 16.2333 19.4972 14.3061C20.2955 12.3788 21.4655 10.6277 22.9406 9.15261C25.9196 6.17359 29.96 4.5 34.173 4.5V4.5C29.96 4.5 25.9196 6.17359 22.9406 9.15261C19.9616 12.1316 18.288 16.172 18.288 20.385V26.206C18.2881 26.802 18.1708 27.3922 17.9429 27.9429C17.7149 28.4936 17.3806 28.994 16.9592 29.4155C16.5378 29.837 16.0375 30.1714 15.4868 30.3995C14.9362 30.6276 14.346 30.745 13.75 30.745H12.944V37.712H14.359C17.0672 37.7117 19.6644 36.6357 21.5793 34.7206C23.4942 32.8055 24.57 30.2082 24.57 27.5" stroke="white" stroke-linecap="round" stroke-linejoin="round"/>
</svg>
