<svg width="48" height="48" viewBox="0 0 48 48" fill="none" xmlns="http://www.w3.org/2000/svg">
<path d="M33.724 8.974L39 14.25M36 28V37.5C36 38.6935 35.5259 39.8381 34.682 40.682C33.8381 41.5259 32.6935 42 31.5 42H10.5C9.30653 42 8.16193 41.5259 7.31802 40.682C6.47411 39.8381 6 38.6935 6 37.5V16.5C6 15.3065 6.47411 14.1619 7.31802 13.318C8.16193 12.4741 9.30653 12 10.5 12H20M33.724 8.974L37.098 5.598C37.8014 4.89465 38.7553 4.49951 39.75 4.49951C40.7447 4.49951 41.6986 4.89465 42.402 5.598C43.1054 6.30135 43.5005 7.25531 43.5005 8.25C43.5005 9.24469 43.1054 10.1986 42.402 10.902L21.164 32.14C20.1066 33.1967 18.8027 33.9734 17.37 34.4L12 36L13.6 30.63C14.0266 29.1973 14.8033 27.8934 15.86 26.836L33.724 8.974V8.974Z" stroke="black" stroke-width="3" stroke-linecap="round" stroke-linejoin="round"/>
</svg>
